<svg width="45" height="45" viewBox="0 0 45 45" fill="none" xmlns="http://www.w3.org/2000/svg">
<g clip-path="url(#clip0_1110_575)">
<rect width="45" height="45" rx="22.5" fill="#292B2F"/>
<path d="M11.7267 31.1147L9.5912 28.141C9.55255 28.0877 9.50019 28.0462 9.43904 28.021C9.37825 27.9959 9.31183 27.988 9.24682 27.9984C9.18181 28.0088 9.12067 28.037 9.07077 28.0798C9.02087 28.1227 8.98397 28.1785 8.96359 28.2412L7.80887 31.9592L10.5751 36.5475L12.095 32.9038L11.7267 31.1147Z" fill="#EB459F"/>
<path d="M9.97319 37.6527C12.6115 40.4401 20.1843 47.9953 25.6459 48.9103L22.828 36.9049C22.828 36.9049 18.7545 39.9565 11.7264 31.1147L9.63092 35.3871C9.45065 35.7547 9.38669 36.1684 9.44784 36.5735C9.50898 36.9784 9.69241 37.3547 9.97319 37.6527Z" fill="url(#paint0_linear_1110_575)"/>
<path d="M24.0762 34.3579C24.0467 34.4166 22.3283 32.1129 21.4965 30.9783C21.3753 30.8134 21.3078 30.615 21.3036 30.4103C21.2997 30.2056 21.3591 30.0046 21.474 29.8351C21.6279 29.6072 21.8061 29.3377 21.972 29.077C22.3856 28.4384 22.9907 27.9469 23.7009 27.673L30.7188 24.9445L34.4809 22.8722C34.9831 22.5956 35.5584 22.4804 36.1283 22.5424L38.3018 22.779C38.6939 22.8217 39.0728 22.9473 39.4129 23.1474C39.7531 23.3475 40.0465 23.6175 40.2742 23.9395L41.7614 26.0428C42.4568 27.0277 42.8152 28.2106 42.7829 29.4155L42.7573 30.3428C42.7443 30.8341 42.6346 31.3179 42.434 31.7666C42.2333 32.2153 41.9462 32.62 41.5885 32.9574L39.7974 34.6515C39.5349 34.9011 39.2147 35.0816 38.8651 35.1766C38.5154 35.2715 38.1479 35.278 37.7951 35.1954C36.3378 34.85 33.8688 33.8139 31.8907 30.683L24.0762 34.3579Z" fill="#FFE75C"/>
<path d="M31.0108 30.2513L26.5831 31.6328C25.3096 32.0293 24.228 32.8817 23.5455 34.0263C22.4941 35.7894 21.0748 38.5629 20.7793 41.0895C20.7793 41.0895 20.3193 42.8697 22.4231 44.4465C22.9872 44.8769 23.4145 45.461 23.6541 46.1283L26.8614 54.8495C26.8614 54.8495 36.2253 54.8495 40.9366 47.8797L36.4604 34.7585C34.9673 33.7888 33.718 32.4889 32.8089 30.9593C32.6329 30.6561 32.3595 30.4212 32.0334 30.2926C31.7069 30.1641 31.3464 30.1495 31.0108 30.2513Z" fill="#FFC619"/>
<path d="M38.1686 29.4051C37.9314 29.4044 37.6998 29.3334 37.503 29.2013L33.7943 26.4987C33.5624 26.329 33.2928 26.2181 33.0086 26.1754C32.7243 26.1327 32.434 26.1595 32.1624 26.2535L31.125 26.611L29.2144 27.1567C29.1867 27.1666 29.1572 27.1707 29.1276 27.1687C29.0981 27.1667 29.0693 27.1587 29.043 27.1452C29.0166 27.1316 28.9934 27.1129 28.9748 27.09C28.9558 27.0671 28.9421 27.0406 28.934 27.0122C28.9259 26.9837 28.9238 26.954 28.9277 26.9247C28.9316 26.8954 28.9414 26.8672 28.9569 26.8419C28.972 26.8166 28.9923 26.7947 29.0166 26.7775C29.0405 26.7604 29.0679 26.7484 29.0971 26.7422L30.9989 26.2L32.0257 25.8442C32.3634 25.7281 32.7243 25.6952 33.0774 25.7484C33.4302 25.8016 33.7655 25.9394 34.0536 26.1499L37.7554 28.856C37.8861 28.9424 38.0403 28.9861 38.1971 28.9812C38.3538 28.9762 38.5052 28.9228 38.6304 28.8283L40.283 27.578C40.3491 27.5283 40.4046 27.466 40.4461 27.3947C40.4875 27.3233 40.5146 27.2444 40.5251 27.1625C40.5357 27.0806 40.5301 26.9974 40.5079 26.9178C40.4861 26.8383 40.4482 26.7639 40.3972 26.699L39.142 25.0965C39.0622 24.9938 38.9631 24.9079 38.85 24.8438C38.7372 24.7798 38.6124 24.7389 38.4831 24.7235L37.1555 24.5628C37.0828 24.5548 37.009 24.5622 36.9394 24.5847C36.8698 24.607 36.8055 24.6439 36.751 24.6928C36.6969 24.7418 36.6533 24.8017 36.6238 24.8686C36.5943 24.9354 36.5792 25.0078 36.5795 25.0809L36.6003 25.7302C36.6045 25.8567 36.6477 25.9787 36.7243 26.0796C36.8009 26.1804 36.9067 26.255 37.0276 26.2932L37.8091 26.5419C37.8492 26.5551 37.892 26.5589 37.9342 26.5532C37.9764 26.5475 38.0164 26.5324 38.0519 26.509C38.0874 26.4856 38.1169 26.4545 38.1387 26.418C38.1605 26.3816 38.1735 26.3407 38.177 26.2984L38.2083 25.9444C38.2104 25.9158 38.2182 25.8879 38.2312 25.8624C38.2442 25.8369 38.2621 25.8142 38.2839 25.7956C38.3057 25.7771 38.331 25.7631 38.3584 25.7543C38.3854 25.7457 38.4142 25.7425 38.4431 25.745C38.4715 25.7475 38.4993 25.7557 38.5246 25.769C38.5499 25.7824 38.5724 25.8006 38.5906 25.8227C38.6089 25.8448 38.6226 25.8703 38.6307 25.8977C38.6391 25.9251 38.6419 25.9539 38.6388 25.9824L38.6079 26.3364C38.5984 26.4431 38.565 26.5463 38.5102 26.6384C38.4554 26.7306 38.3805 26.8092 38.2912 26.8686C38.202 26.9279 38.1004 26.9665 37.9943 26.9814C37.8878 26.9963 37.7796 26.9871 37.6777 26.9546L36.8962 26.7042C36.6906 26.6389 36.5103 26.5117 36.3803 26.3401C36.2499 26.1686 36.1758 25.961 36.168 25.7458L36.1473 25.0947C36.1431 24.9585 36.168 24.8228 36.2211 24.6972C36.2738 24.5715 36.3536 24.4588 36.4541 24.3667C36.5549 24.2747 36.6744 24.2055 36.8044 24.1639C36.9345 24.1224 37.0719 24.1094 37.2072 24.1259L38.5351 24.2866C38.7207 24.3088 38.8999 24.3676 39.0626 24.4595C39.2249 24.5514 39.368 24.6745 39.4825 24.8219L40.7377 26.4244C40.8242 26.5344 40.8878 26.6604 40.9247 26.7952C40.9619 26.9299 40.9718 27.0707 40.9535 27.2093C40.9356 27.3479 40.8902 27.4815 40.82 27.6024C40.7493 27.7232 40.6559 27.8288 40.5441 27.9131L38.8809 29.1633C38.676 29.3188 38.4258 29.4036 38.1686 29.4051Z" fill="#FFC619"/>
<path d="M31.08 26.6144C30.8035 23.5889 28.9533 23.1174 28.9533 23.1174C28.9533 23.1174 24.1921 21.9759 26.0022 19.3044C27.8123 16.6328 26.711 13.7196 26.711 13.7196C29.8593 16.3531 31.9445 12.5798 31.9445 12.5798C33.2447 16.7468 36.6677 14.191 36.6677 14.191C35.2709 16.752 38.9259 19.7257 41.2184 16.7019C43.6491 13.4968 39.2629 12.0289 39.2629 12.0289C39.2629 12.0289 40.7964 7.89989 37.3611 6.41818C33.867 4.91234 32.0636 8.41448 32.0636 8.41448C27.0343 2.83659 23.8773 9.90827 23.8773 9.90827C17.4648 8.12264 14.3682 11.8217 13.663 15.1339C13.4381 15.7279 13.4208 16.3289 12.2433 16.5603C8.95834 17.2096 8.1357 19.3959 13.094 20.0504C10.7997 24.9393 16.4292 22.6269 16.5519 22.5665C17.6862 22.0295 21.0369 21.2472 20.9364 23.3488C20.8362 25.3969 21.3928 26.212 22.5736 26.6144C23.4106 26.9011 23.5125 27.787 23.4591 28.4535C23.4549 28.5369 23.4714 28.6199 23.5065 28.6956C23.5417 28.7713 23.5947 28.8373 23.6608 28.8882C23.7269 28.9391 23.8045 28.9732 23.8868 28.9877C23.969 29.0023 24.0537 28.9967 24.1331 28.9716L31.08 26.6144Z" fill="url(#paint1_linear_1110_575)"/>
<path d="M22.1448 7.01746C22.1448 7.01746 22.9956 4.36835 21.6834 4.88815C20.3709 5.40795 18.5366 5.7758 18.3258 7.27992C18.1149 8.78408 17.7881 10.0015 18.7668 9.69759C19.7451 9.39366 21.5123 9.57499 21.5123 9.57499L22.1448 7.01746Z" fill="#91FFAD"/>
<path d="M13.4658 20.0556C13.4658 20.0556 15.5233 20.2283 17.1675 19.7223C17.1939 19.715 17.222 19.7168 17.2473 19.7275C17.2726 19.7382 17.2933 19.7572 17.3063 19.7812C17.3193 19.8053 17.3239 19.8331 17.319 19.86C17.3141 19.887 17.3003 19.9115 17.28 19.9296C15.9608 21.0624 12.5184 23.7357 13.4658 20.0556Z" fill="black"/>
<path d="M23.7234 8.69944C23.7234 8.69944 23.2047 11.3813 25.1413 11.6715C25.2021 11.6805 25.2643 11.6769 25.3237 11.6609C25.3834 11.6448 25.4389 11.6167 25.4871 11.5782L27.5358 9.90828C27.8671 9.6377 28.1409 9.30369 28.3408 8.92585C28.5411 8.54802 28.6634 8.134 28.701 7.7082C28.7962 6.63234 28.765 5.34408 28.0492 5.39068C26.9496 5.46149 24.9371 5.64109 23.9967 7.89125C23.8864 8.15382 23.795 8.42391 23.7234 8.69944Z" fill="#91FFAD"/>
<path d="M22.1484 8.68739C22.1273 8.68735 22.1062 8.68384 22.0862 8.67702C20.6236 8.24012 20.3246 6.60475 20.3123 6.53738C20.3024 6.48084 20.3154 6.42268 20.3485 6.3757C20.3815 6.32875 20.4321 6.29685 20.4887 6.28701C20.5452 6.27717 20.6036 6.29017 20.6507 6.3232C20.6974 6.35623 20.7294 6.40659 20.7392 6.46313C20.7392 6.4787 21.0073 7.90337 22.2088 8.2643C22.2587 8.27884 22.3019 8.31093 22.33 8.35457C22.3581 8.39825 22.3697 8.45061 22.3624 8.50206C22.355 8.5535 22.3293 8.60056 22.29 8.63461C22.2506 8.66866 22.2004 8.68739 22.1484 8.68739Z" fill="#29CC7A"/>
<path d="M19.607 8.92914C19.5581 8.92857 19.5107 8.9115 19.4731 8.88064C19.4351 8.84982 19.4088 8.80706 19.3982 8.75937C19.3877 8.71165 19.394 8.66186 19.4155 8.61804C19.4369 8.57422 19.4727 8.53901 19.517 8.51813C19.5827 8.48703 21.1317 7.79975 22.1399 8.54059C22.1656 8.55605 22.1881 8.57675 22.2053 8.60138C22.2228 8.62598 22.2348 8.65399 22.2408 8.6835C22.2467 8.71306 22.2464 8.74349 22.2397 8.7729C22.233 8.80231 22.2204 8.83 22.2025 8.85422C22.1845 8.87843 22.1617 8.89863 22.1357 8.9135C22.1093 8.9284 22.0802 8.93761 22.0503 8.94063C22.0204 8.94361 21.9899 8.94028 21.9614 8.93086C21.9326 8.92148 21.9062 8.90615 21.8841 8.88595C21.0766 8.29362 19.7106 8.90152 19.6969 8.9084C19.6688 8.92186 19.6379 8.92893 19.607 8.92914Z" fill="#29CC7A"/>
<path d="M24.8387 10.3729C24.7941 10.3724 24.7505 10.3586 24.714 10.3332L23.3965 9.40235C23.283 9.32219 23.1927 9.21329 23.1348 9.08679C23.0771 8.96028 23.0543 8.82074 23.0683 8.68242C23.0824 8.54415 23.133 8.41205 23.2149 8.29974C23.2971 8.18743 23.4074 8.09891 23.535 8.04325L25.9052 7.0071C25.9579 6.98457 26.0173 6.98373 26.0704 7.00474C26.1235 7.02579 26.166 7.06701 26.1888 7.11937C26.2004 7.1453 26.2064 7.17324 26.2071 7.2016C26.2074 7.22992 26.2025 7.25807 26.192 7.28443C26.1814 7.31075 26.166 7.33478 26.1459 7.35506C26.1263 7.37534 26.1027 7.3915 26.0764 7.40257L23.7079 8.43872C23.6485 8.46188 23.5968 8.50089 23.5585 8.55146C23.5202 8.60202 23.4963 8.66222 23.49 8.7254C23.4833 8.78858 23.4946 8.85233 23.522 8.90961C23.5494 8.96685 23.5923 9.01545 23.6457 9.05003L24.9631 9.97739C25.0099 10.0104 25.0415 10.0606 25.0513 10.1169C25.0608 10.1733 25.0478 10.2311 25.0151 10.2779C24.9951 10.3066 24.9691 10.3301 24.9382 10.3466C24.9076 10.3631 24.8735 10.3721 24.8387 10.3729Z" fill="#29CC7A"/>
<path d="M21.8285 46.6709C21.7266 46.6034 18.9895 40.6991 12.9766 43.2288C6.96339 45.759 11.1869 46.9748 14.5327 47.2458C17.878 47.517 19.7018 49.4044 19.7018 49.4044L21.8285 46.6709Z" fill="#FF78B9"/>
<path d="M17.8036 52.6908C17.8036 52.6908 21.3893 54.3726 22.7812 55.599C23.9293 56.6107 31.4827 63.1402 35.105 57.647C35.7003 56.7207 36.0566 55.6619 36.1424 54.5645C36.2875 52.9428 35.9487 50.646 35.4765 46.5517C34.8766 41.3348 34.7849 31.9903 28.9431 33.061C23.5438 34.0488 24.377 42.4312 28.1461 49.5218C28.1461 49.5218 22.6603 46.5103 22.4734 46.4895C22.2868 46.4688 18.0562 45.474 17.8036 52.6908Z" fill="#FFE75C"/>
<path d="M9.18675 27.7645C8.76823 27.4657 6.7125 26.3364 4.31451 26.977C3.37204 27.2423 2.55432 27.8328 2.00648 28.6435C1.41365 29.507 0.345032 30.9334 -0.398543 31.3064C-2.22937 32.2251 1.05909 33.598 2.71351 31.4048L2.77254 31.3876C2.70331 32.4047 2.8625 33.7638 4.15568 34.2249C5.20497 34.5979 4.8005 31.6345 6.16466 30.3635L6.2114 30.3497C6.2114 30.3497 4.849 34.8396 7.30743 33.0488C11.6037 29.918 9.64991 28.0943 9.18675 27.7645Z" fill="#FF78B9"/>
<path d="M21.5998 15.8412C22.4239 15.8335 23.088 15.4422 23.0838 14.9672C23.0792 14.4923 22.4077 14.1135 21.5837 14.1213C20.7596 14.1291 20.0951 14.5204 20.0997 14.9953C20.1042 15.4703 20.7758 15.849 21.5998 15.8412Z" fill="#EB459F"/>
<path d="M17.1166 13.8003C17.2101 13.0661 16.9332 12.4262 16.4985 12.371C16.0638 12.3158 15.6354 12.8663 15.5419 13.6005C15.4488 14.3347 15.7254 14.9747 16.1604 15.0298C16.5951 15.085 17.0231 14.5345 17.1166 13.8003Z" fill="#EB459F"/>
<path d="M21.7267 14.6901C21.8222 14.7244 21.909 14.7793 21.9811 14.851C22.0531 14.9227 22.1086 15.0093 22.1434 15.1048C22.1779 15.2003 22.1912 15.3023 22.1817 15.4034C22.1726 15.5045 22.141 15.6024 22.0897 15.69C21.8061 16.177 21.3306 16.7866 20.6426 17.0353C19.9545 17.2839 19.1987 17.1233 18.668 16.9316C18.5725 16.8974 18.4853 16.8424 18.4133 16.7708C18.3412 16.6991 18.2861 16.6124 18.2513 16.5169C18.2165 16.4214 18.2035 16.3195 18.2126 16.2183C18.2221 16.1172 18.2534 16.0193 18.305 15.9317C18.5886 15.4465 19.0623 14.8369 19.7521 14.5865C20.4419 14.3361 21.1957 14.5001 21.7267 14.6901Z" fill="white"/>
<path d="M20.4335 17.0957C20.4616 17.0027 20.4764 16.9062 20.4767 16.809C20.4767 16.1856 19.906 15.6796 19.2025 15.6796C19.0254 15.6779 18.8501 15.7111 18.6859 15.7772C18.5218 15.8432 18.3725 15.941 18.2463 16.0647C18.1908 16.2352 18.2035 16.4206 18.2822 16.5817C18.3609 16.7428 18.4994 16.8671 18.668 16.9282C19.2282 17.1521 19.841 17.2102 20.4335 17.0957Z" fill="black"/>
<path d="M16.2806 13.2188C16.354 13.1906 16.4327 13.1789 16.5111 13.1844C16.5895 13.1899 16.6661 13.2126 16.7346 13.2508C16.8035 13.289 16.8628 13.3419 16.9089 13.4055C16.9553 13.4692 16.9865 13.5422 17.0013 13.6194C17.0811 14.0495 17.112 14.6556 16.8284 15.1426C16.5448 15.6295 16.0262 15.9249 15.6182 16.082C15.5447 16.1102 15.466 16.1219 15.3876 16.1164C15.3093 16.1109 15.2327 16.0882 15.1642 16.05C15.0953 16.0118 15.0359 15.959 14.9899 15.8953C14.9435 15.8316 14.9122 15.7585 14.8974 15.6814C14.8159 15.2514 14.785 14.6452 15.0615 14.1582C15.3381 13.6712 15.8726 13.3742 16.2806 13.2188Z" fill="white"/>
<path d="M16.7803 15.2272C16.7318 15.1161 16.6629 15.0148 16.5779 14.9284C16.132 14.4812 15.3676 14.5278 14.849 15.032C14.8451 15.2474 14.863 15.4626 14.9024 15.6744C14.9171 15.7516 14.9488 15.8247 14.9948 15.8883C15.0408 15.952 15.1006 16.0049 15.1691 16.0431C15.238 16.0813 15.3142 16.1039 15.3929 16.1095C15.4713 16.115 15.55 16.1033 15.6235 16.0751C16.087 15.9179 16.4911 15.6218 16.7803 15.2272Z" fill="black"/>
<path d="M26.0142 12.2621C25.8413 12.5418 26.2615 12.5073 26.718 13.7265C28.4469 15.1667 29.849 14.6798 30.7669 13.9493C27.6222 14.1911 26.367 11.6801 26.0142 12.2621Z" fill="#EB459F"/>
<path d="M34.2023 14.9526C31.9427 13.7748 33.4141 10.6819 32.5893 10.7804C32.2903 10.8166 32.6498 11.2553 31.9463 12.5833C32.472 14.2705 33.3484 14.8559 34.2023 14.9526Z" fill="#EB459F"/>
<path d="M37.3456 14.077C37.4025 13.8594 37.2177 13.7938 37.081 13.856C36.9081 13.9924 36.7819 14.1029 36.6695 14.2014C36.439 14.6196 36.3357 15.0958 36.3718 15.5718C36.408 16.0478 36.5823 16.503 36.8737 16.8815C36.4309 14.8887 37.2212 14.5381 37.3456 14.077Z" fill="#EB459F"/>
<path d="M24.5671 26.0325C23.3414 25.5783 22.4232 24.9808 22.4284 23.9982C22.4372 22.7893 21.0938 22.3248 20.2501 22.1521C20.6893 22.3472 20.9711 22.7185 20.9416 23.3488C20.8415 25.3969 21.3981 26.2121 22.5788 26.6144C23.4159 26.9011 23.5178 27.787 23.464 28.4536C23.4602 28.5369 23.4767 28.62 23.5118 28.6956C23.5469 28.7713 23.5997 28.8374 23.6661 28.8883C23.7321 28.9391 23.8098 28.9733 23.892 28.9878C23.9743 29.0023 24.0586 28.9968 24.1384 28.9716L26.5588 28.1462C26.394 27.674 26.1312 27.2418 25.7882 26.8777C25.4449 26.5135 25.0292 26.2255 24.5671 26.0325Z" fill="#EB459F"/>
<path d="M24.0867 7.69094C24.0867 7.69094 23.0494 6.56324 21.8511 7.41119C21.0298 7.99315 21.0418 9.08971 21.5053 9.57324C21.5053 9.57324 22.9731 9.69241 23.6784 9.93589C23.6854 9.93589 23.599 8.62519 24.0867 7.69094Z" fill="#57F287"/>
</g>
<defs>
<linearGradient id="paint0_linear_1110_575" x1="7.51651" y1="24.7493" x2="24.67" y2="49.0277" gradientUnits="userSpaceOnUse">
<stop offset="0.24" stop-color="#FFE75C"/>
<stop offset="1" stop-color="#FF8C19"/>
</linearGradient>
<linearGradient id="paint1_linear_1110_575" x1="37.2816" y1="27.7006" x2="26.7124" y2="16.0818" gradientUnits="userSpaceOnUse">
<stop stop-color="#EB459F"/>
<stop offset="0.46" stop-color="#F55FAC"/>
<stop offset="0.99" stop-color="#FF78B9"/>
</linearGradient>
<clipPath id="clip0_1110_575">
<rect width="45" height="45" rx="22.5" fill="white"/>
</clipPath>
</defs>
</svg>
