<svg width="45" height="45" viewBox="0 0 45 45" fill="none" xmlns="http://www.w3.org/2000/svg">
<g clip-path="url(#clip0_281_15283)">
<rect width="45" height="45" rx="22.5" fill="#5865F2"/>
<path d="M33.7098 32.2106C33.3853 32.2873 33.0455 32.2665 32.7328 32.1507C32.4202 32.0349 32.1488 31.8293 31.9526 31.5598C31.6932 31.186 31.589 30.7262 31.6619 30.277C31.7347 29.8279 31.9789 29.4246 32.3431 29.1518C35.2717 27.0042 35.7924 25.3771 35.4669 24.9216C35.2143 24.5399 35.1206 24.0747 35.2056 23.625C35.2908 23.1753 35.5479 22.7766 35.9225 22.5136C36.294 22.2644 36.7489 22.1725 37.188 22.2579C37.627 22.3433 38.0144 22.599 38.2654 22.9691C39.1115 24.1406 40.4131 27.3947 34.3606 31.8852C34.1812 32.0565 33.9544 32.1699 33.7098 32.2106Z" fill="#4086EA"/>
<path d="M38.9814 25.3118C38.4607 21.7323 34.6209 22.3181 29.3494 23.3593V23.5546C29.4219 23.7713 29.5377 23.971 29.6896 24.1417C29.8416 24.3125 30.0265 24.4507 30.2332 24.548C30.4401 24.6453 30.6644 24.6997 30.8928 24.708C31.1211 24.7162 31.3489 24.678 31.5621 24.5959C32.3431 24.3356 34.686 23.8149 35.467 24.9213C36.248 26.0277 35.2717 27.0039 32.3431 29.1516C31.9789 29.4243 31.7347 29.8276 31.6619 30.2767C31.5891 30.7259 31.6933 31.1857 31.9526 31.5596C32.1488 31.8291 32.4202 32.0346 32.7329 32.1504C33.0455 32.2662 33.3854 32.287 33.7098 32.2104C33.9544 32.1696 34.1812 32.0563 34.3606 31.885C38.0051 29.2166 38.9814 26.9388 38.9814 25.3118Z" fill="#0654B5"/>
<path d="M12.3631 41.9727C11.9669 42.0625 11.5516 42.0065 11.1932 41.8152C10.8346 41.6245 10.5569 41.3101 10.4107 40.9314C9.96803 39.7713 9.9841 38.4861 10.4557 37.3375C10.9272 36.1888 11.8188 35.2631 12.9489 34.7487L17.6998 32.5359C17.9049 32.4419 18.1265 32.3892 18.352 32.3808C18.5775 32.3725 18.8025 32.4086 19.014 32.4872C19.2255 32.5657 19.4194 32.6852 19.5848 32.8387C19.7501 32.9923 19.8837 33.1768 19.9776 33.382C20.0717 33.5871 20.1243 33.8087 20.1327 34.0342C20.141 34.2596 20.1049 34.4846 20.0264 34.6961C19.9478 34.9076 19.8283 35.1016 19.6748 35.2669C19.5213 35.4323 19.3367 35.5657 19.1316 35.6598L14.3807 37.8075C14.0357 37.9646 13.7632 38.2469 13.6182 38.5972C13.4733 38.9476 13.4667 39.3398 13.5997 39.6948C13.7513 40.1185 13.7345 40.5842 13.5528 40.9958C13.3712 41.4078 13.0386 41.7338 12.6235 41.9076L12.3631 41.9727Z" fill="#4086EA"/>
<path d="M16.2029 35.2041C14.4457 35.92 13.2092 37.1566 13.4695 39.2392C13.4672 38.9381 13.552 38.6428 13.7137 38.3888C13.8753 38.1347 14.107 37.9328 14.3806 37.8074L18.0903 36.1153C17.6347 35.3994 16.9839 34.8787 16.2029 35.2041Z" fill="#0654B5"/>
<path d="M33.905 29.4771C33.6067 28.9913 33.1641 28.611 32.6389 28.3893C32.1138 28.1676 31.5325 28.1156 30.9764 28.2406L17.83 31.4295C17.2894 31.5686 16.8078 31.8776 16.4563 32.3112C16.1047 32.7448 15.9018 33.2799 15.8776 33.8375L15.5522 40.9965C15.4931 42.7458 16.0712 44.4575 17.1792 45.8125C17.6591 46.3709 18.2828 46.7874 18.9826 47.0171C19.6823 47.2462 20.4316 47.28 21.1491 47.1141L35.2717 43.6648C35.979 43.4871 36.6248 43.1207 37.1405 42.6046C37.6562 42.0892 38.0224 41.4436 38.2004 40.7361C38.5646 39.0053 38.287 37.2011 37.4194 35.6598L33.905 29.4771Z" fill="#FF7259"/>
<path d="M17.1792 45.8123C17.6591 46.3707 18.2828 46.7872 18.9826 47.017C19.6823 47.246 20.4316 47.2799 21.1491 47.1139L35.2717 43.6646C35.979 43.487 36.6248 43.1206 37.1405 42.6045C37.6562 42.089 38.0224 41.4434 38.2004 40.736C38.4745 39.4352 38.3844 38.084 37.9401 36.8311L15.6172 42.2328C15.7786 43.5527 16.3214 44.7964 17.1792 45.8123Z" fill="#ED4C4C"/>
<path d="M36.0528 40.3457L18.8714 44.5109C18.0168 44.7511 17.1097 44.7283 16.2682 44.4458C16.5285 44.9014 16.8539 45.357 17.1793 45.8125C17.6592 46.3709 18.2829 46.7875 18.9827 47.0172C19.6824 47.2463 20.4317 47.2801 21.1492 47.1142L35.2718 43.6649C35.9791 43.4872 36.6249 43.1208 37.1406 42.6047C37.6563 42.0893 38.0225 41.4437 38.2005 40.7362C38.2736 40.1966 38.317 39.6535 38.3306 39.1092C37.7071 39.7332 36.9158 40.1628 36.0528 40.3457Z" fill="#ED4C4C"/>
<path d="M27.8507 4.1834L7.92703 9.78369C5.33186 10.5131 3.81937 13.2083 4.54887 15.8035L7.93016 27.8328C8.65965 30.428 11.3548 31.9405 13.95 31.211L33.8736 25.6107C36.4688 24.8813 37.9812 22.1861 37.2518 19.5909L33.8705 7.56156C33.141 4.96639 30.4459 3.4539 27.8507 4.1834Z" fill="#FF7259"/>
<path d="M36.6384 17.5023L37.2242 19.5849C37.4024 20.2045 37.4562 20.8533 37.3823 21.4938C37.3084 22.1343 37.1084 22.7538 36.7937 23.3166C36.4791 23.8793 36.056 24.3742 35.549 24.7726C35.0421 25.1709 34.4612 25.4648 33.8399 25.6374L13.9251 31.2344C13.3098 31.4119 12.6652 31.4648 12.0291 31.3902C11.3931 31.3155 10.7783 31.1148 10.2207 30.7997C9.66318 30.4845 9.1741 30.0614 8.78211 29.5549C8.39007 29.0484 8.10299 28.4689 7.93769 27.8502L7.35196 25.7676C7.51727 26.3863 7.80434 26.9659 8.19638 27.4723C8.58837 27.9788 9.07745 28.4019 9.635 28.7171C10.1926 29.0322 10.8074 29.233 11.4434 29.3076C12.0795 29.3823 12.7241 29.3293 13.3394 29.1518L33.3193 23.5548C33.9346 23.3753 34.5087 23.0764 35.0085 22.6751C35.5083 22.2738 35.9242 21.778 36.2324 21.2159C36.5406 20.654 36.7351 20.0367 36.8048 19.3995C36.8744 18.7623 36.8179 18.1176 36.6384 17.5023Z" fill="#ED4C4C"/>
<path d="M20.6702 25.7656L25.1812 24.4975C25.4471 24.4228 25.7317 24.4568 25.9726 24.5919C26.2134 24.7271 26.3908 24.9524 26.4655 25.2182L27.1171 27.5364L20.6638 29.3503L20.0122 27.0322C19.9399 26.7769 19.9678 26.5038 20.0901 26.2684C20.2124 26.033 20.4198 25.8532 20.6702 25.7656Z" fill="#FFDC53"/>
<path d="M26.5134 25.436L20.0602 27.25L20.6449 29.33L27.0981 27.5161L26.5134 25.436Z" fill="#F9B300"/>
<path d="M36.7685 17.8928L34.3605 9.237C35.0144 9.47578 35.6027 9.86549 36.0776 10.3744C36.5525 10.8832 36.9008 11.4969 37.0939 12.1656L37.6146 13.9879C37.8062 14.6581 37.8292 15.3653 37.6816 16.0466C37.534 16.7278 37.2204 17.362 36.7685 17.8928Z" fill="#FFDC53"/>
<path d="M37.2242 12.5561L37.6147 13.9878C37.8063 14.658 37.8294 15.3652 37.6818 16.0464C37.5341 16.7277 37.2205 17.3619 36.7687 17.8927L35.9877 15.1593C36.9639 14.3783 37.4195 13.4021 37.2242 12.5561Z" fill="#F9B300"/>
<path d="M7.41702 26.1581L5.00901 17.5023C4.55722 18.0331 4.24353 18.6673 4.09593 19.3485C3.94832 20.0298 3.97136 20.737 4.16296 21.4072L4.68361 23.2294C4.87683 23.8981 5.22502 24.5119 5.69998 25.0207C6.17494 25.5296 6.76321 25.9193 7.41702 26.1581Z" fill="#FFDC53"/>
<path d="M6.63601 23.4246L7.41698 26.158C6.76311 25.9193 6.17484 25.5295 5.69988 25.0207C5.22499 24.5118 4.87674 23.8981 4.68358 23.2294L4.29309 21.7976C4.48833 22.6437 5.39947 23.2294 6.63601 23.4246Z" fill="#F9B300"/>
<path d="M13.9366 6.36316L21.7056 4.17943C21.9216 4.11871 22.1529 4.1463 22.3486 4.2561C22.5442 4.36589 22.6883 4.54896 22.749 4.76496L22.978 5.57945L13.58 8.22109L13.3511 7.40661C13.2904 7.1906 13.318 6.9593 13.4277 6.7636C13.5375 6.5679 13.7206 6.42388 13.9366 6.36316Z" fill="#70A9FA"/>
<path d="M15.1393 5.97073L21.7805 4.10394C21.9799 4.0479 22.1934 4.07335 22.3741 4.17468C22.5547 4.27608 22.6876 4.44503 22.7437 4.64444L22.9903 5.5216L14.8454 7.81102L14.5988 6.93386C14.5427 6.73445 14.5682 6.52098 14.6696 6.34032C14.7709 6.15972 14.9399 6.02676 15.1393 5.97073Z" fill="#4086EA"/>
<path d="M28.0972 8.0565L11.0555 12.8467C9.7407 13.2163 8.97437 14.5818 9.34396 15.8967L11.4133 23.2584C11.7829 24.5733 13.1484 25.3396 14.4633 24.97L31.5049 20.1798C32.8198 19.8102 33.5861 18.4447 33.2165 17.1298L31.1472 9.76807C30.7776 8.45317 29.412 7.6869 28.0972 8.0565Z" fill="#ED4C4C"/>
<path d="M27.9613 7.59037L10.9197 12.3806C9.60483 12.7502 8.8385 14.1157 9.2081 15.4306L11.2774 22.7923C11.647 24.1072 13.0125 24.8736 14.3274 24.5039L31.369 19.7137C32.6839 19.3441 33.4502 17.9786 33.0806 16.6637L31.0114 9.302C30.6418 7.9871 29.2762 7.22077 27.9613 7.59037Z" fill="black"/>
<path d="M16.3451 15.6814L12.7739 16.6852C12.5663 16.7436 12.4429 16.9508 12.4984 17.148C12.5538 17.3453 12.767 17.4578 12.9746 17.3995L16.5459 16.3957C16.7535 16.3373 16.8768 16.1301 16.8214 15.9329C16.7659 15.7356 16.5527 15.623 16.3451 15.6814Z" fill="#FFF0A6"/>
<path d="M25.1352 13.9498L28.957 12.8756C29.1646 12.8172 29.288 12.61 29.2326 12.4128C29.1771 12.2156 28.9639 12.103 28.7562 12.1613L24.9344 13.2356C24.7268 13.294 24.6034 13.5011 24.6589 13.6984C24.7143 13.8956 24.9276 14.0082 25.1352 13.9498Z" fill="#FFF0A6"/>
<path d="M27.7222 29.0215L21.149 30.6485L21.3443 35.3994C21.3517 35.5084 21.3821 35.6145 21.4332 35.711C21.4842 35.8075 21.555 35.8922 21.6408 35.9597C21.7267 36.0271 21.8258 36.0758 21.9316 36.1026C22.0374 36.1294 22.1478 36.1338 22.2554 36.1153L29.2191 34.4232C29.3258 34.3969 29.425 34.3465 29.5091 34.2757C29.5932 34.2049 29.6598 34.1157 29.7039 34.015C29.7479 33.9143 29.7682 33.8048 29.7631 33.695C29.758 33.5853 29.7277 33.4781 29.6746 33.3819L27.7222 29.0215Z" fill="#FFDC53"/>
<path d="M20.4983 18.2831C20.9613 17.5116 21.6617 16.9108 22.4947 16.5706C23.3276 16.2304 24.2484 16.169 25.1191 16.3957" stroke="#FFF0A6" stroke-width="0.264307" stroke-linecap="round" stroke-linejoin="round"/>
<path d="M17.9602 44.576C17.7763 44.602 17.5896 44.5552 17.4395 44.4458L15.8776 42.8188C15.8165 42.7192 15.7908 42.6014 15.8046 42.4856C15.8183 42.3698 15.8708 42.2617 15.9534 42.1791C16.0362 42.0964 16.1442 42.0437 16.2603 42.03C16.3764 42.0164 16.4937 42.0417 16.5934 42.1029L18.2205 43.7299C18.312 43.8269 18.3631 43.9545 18.3631 44.0879C18.3631 44.2213 18.312 44.3489 18.2205 44.4458L17.9602 44.576Z" fill="#22262E"/>
<path d="M16.5283 45.2267H16.4633C16.3185 45.2274 16.1786 45.1747 16.0705 45.079C15.9623 44.9827 15.8936 44.8499 15.8775 44.7061L15.7474 42.4933C15.7463 42.3658 15.7921 42.2421 15.8762 42.1464C15.9601 42.0501 16.0763 41.9883 16.2029 41.9727C16.2713 41.9636 16.341 41.9681 16.4076 41.9863C16.4743 42.0046 16.5367 42.0351 16.5911 42.0781C16.6457 42.1204 16.6912 42.1731 16.7251 42.233C16.759 42.2935 16.7806 42.3599 16.7887 42.4282L16.9188 44.641C16.926 44.7679 16.8918 44.8935 16.8213 44.9989C16.7509 45.105 16.6481 45.1844 16.5283 45.2267Z" fill="#22262E"/>
<path d="M15.9427 44.0552H14.5109C13.6086 43.955 12.7506 43.6114 12.0285 43.0608C11.3063 42.5108 10.7472 41.7748 10.4108 40.9313C10.3271 40.7222 10.2861 40.4984 10.29 40.2732C10.2939 40.048 10.3427 39.8258 10.4337 39.6197C10.5246 39.4136 10.6558 39.2277 10.8195 39.073C10.9832 38.9182 11.1762 38.7978 11.387 38.7186C11.8107 38.5671 12.2764 38.5838 12.6881 38.7654C13.0998 38.9471 13.4261 39.2797 13.5998 39.6948C13.6948 39.9564 13.8608 40.1863 14.0792 40.3587C14.2976 40.5312 14.5599 40.6393 14.8363 40.671H15.6824C15.9048 40.6875 16.1218 40.7478 16.3209 40.848C16.52 40.9489 16.6972 41.0882 16.8423 41.2574C16.9875 41.4266 17.0978 41.6231 17.1667 41.8353C17.2357 42.0475 17.2621 42.2707 17.2443 42.4933C17.237 42.8629 17.1041 43.2189 16.8676 43.5027C16.631 43.7864 16.3048 43.9817 15.9427 44.0552Z" fill="#4086EA"/>
<path d="M29.2841 25.0516C29.1767 25.0787 29.0634 25.0708 28.9607 25.0291C28.858 24.9874 28.7714 24.914 28.7133 24.8196C28.6553 24.7252 28.6288 24.6148 28.6378 24.5044C28.6469 24.3939 28.6909 24.2892 28.7635 24.2055L30.3254 22.7086C30.3666 22.6415 30.4223 22.5845 30.4887 22.5421C30.555 22.4996 30.63 22.4727 30.7082 22.4635C30.7863 22.4542 30.8656 22.4628 30.94 22.4885C31.0144 22.5144 31.082 22.5567 31.1376 22.6123C31.1933 22.668 31.2357 22.7356 31.2614 22.81C31.2872 22.8844 31.2958 22.9636 31.2865 23.0418C31.2772 23.12 31.2504 23.1951 31.2079 23.2613C31.1654 23.3276 31.1085 23.3834 31.0413 23.4245L29.4794 24.9214L29.2841 25.0516Z" fill="#22262E"/>
<path d="M30.8463 23.5547H30.4558L28.5033 22.6435C28.4431 22.6097 28.3902 22.5643 28.3477 22.5098C28.3052 22.4554 28.274 22.3931 28.2558 22.3264C28.2376 22.2599 28.2329 22.1902 28.2418 22.1218C28.2508 22.0533 28.2733 21.9873 28.3081 21.9276C28.3353 21.8695 28.3744 21.8178 28.423 21.7759C28.4715 21.734 28.5284 21.7028 28.5898 21.6844C28.6512 21.6659 28.7159 21.6607 28.7795 21.669C28.8431 21.6773 28.9042 21.6989 28.9589 21.7324L30.9113 22.6435C30.9771 22.6714 31.0364 22.7126 31.0856 22.7644C31.1348 22.8163 31.1728 22.8777 31.1972 22.9449C31.2216 23.012 31.2319 23.0835 31.2276 23.1548C31.2231 23.2261 31.2041 23.2958 31.1717 23.3594C31.085 23.4554 30.9717 23.5234 30.8463 23.5547Z" fill="#22262E"/>
<path d="M30.8463 23.5547H28.5684C28.5033 23.564 28.437 23.5593 28.374 23.5406C28.311 23.522 28.2528 23.4899 28.2033 23.4466C28.1538 23.4034 28.1143 23.3499 28.0875 23.2899C28.0606 23.2299 28.047 23.1648 28.0478 23.0991C28.0383 23.034 28.0431 22.9678 28.0618 22.9047C28.0804 22.8417 28.1125 22.7835 28.1558 22.734C28.1991 22.6845 28.2525 22.645 28.3125 22.6182C28.3725 22.5913 28.4376 22.5778 28.5033 22.5785H30.651C30.7194 22.5693 30.7891 22.574 30.8557 22.592C30.9223 22.6101 30.9847 22.6412 31.0392 22.6836C31.0938 22.726 31.1393 22.7788 31.1732 22.839C31.2071 22.8991 31.2287 22.9654 31.2367 23.034C31.2304 23.1497 31.19 23.2609 31.1204 23.3536C31.0509 23.4463 30.9555 23.5162 30.8463 23.5547Z" fill="#22262E"/>
<path d="M37.2892 25.5722C36.9553 25.663 36.6017 25.6493 36.2759 25.5329C35.95 25.4166 35.6677 25.2031 35.4669 24.9214C34.6859 23.815 32.343 24.3356 31.5621 24.596C31.3488 24.6781 31.1211 24.7162 30.8928 24.708C30.6643 24.6998 30.44 24.6454 30.2332 24.5481C30.0265 24.4507 29.8415 24.3125 29.6896 24.1418C29.5377 23.971 29.4219 23.7713 29.3493 23.5547C29.2206 23.1313 29.2564 22.675 29.4494 22.2769C29.6424 21.8788 29.9785 21.5681 30.3906 21.407C32.4081 20.6911 36.313 20.1704 38.2654 22.9689C38.4007 23.1457 38.4983 23.3485 38.552 23.5645C38.6058 23.7806 38.6147 24.0054 38.5781 24.2251C38.5415 24.4446 38.4602 24.6545 38.3392 24.8414C38.2183 25.0283 38.0603 25.1885 37.8749 25.3118C37.7077 25.4514 37.5049 25.5415 37.2892 25.5722Z" fill="#4086EA"/>
<path d="M10.1504 40.0852C10.1982 40.3778 10.2858 40.6624 10.4107 40.9313C10.7471 41.7747 11.3062 42.5108 12.0283 43.0607C12.7505 43.6113 13.6085 43.955 14.5109 44.0552H15.9426C16.2942 43.9842 16.6125 43.7988 16.8479 43.528C17.0833 43.2573 17.2227 42.9163 17.2442 42.5583C13.2092 43.2091 10.5409 41.3218 10.1504 40.0852Z" fill="#0654B5"/>
<path d="M38.5909 24.0103C37.3543 21.9277 33.84 22.4484 29.3494 23.3595V23.5548C29.4219 23.7715 29.5377 23.9712 29.6896 24.1419C29.8416 24.3126 30.0265 24.4509 30.2332 24.5482C30.4401 24.6454 30.6644 24.6999 30.8928 24.7081C31.1211 24.7163 31.3489 24.6782 31.5621 24.596C32.3431 24.3357 34.686 23.8151 35.467 24.9215L36.8337 27.0041L38.721 25.1167L38.5909 24.0103Z" fill="#0654B5"/>
<path d="M10.0853 39.1091V39.5647C10.5703 39.17 11.1735 38.9492 11.7987 38.9374C12.424 38.9256 13.0351 39.1236 13.5346 39.4996V39.2393C13.0901 38.7722 12.4808 38.4972 11.8364 38.4729C11.1921 38.4486 10.5637 38.6769 10.0853 39.1091Z" fill="black"/>
<path d="M14.1205 34.163L13.7951 34.3582C14.3023 34.6999 14.6926 35.1886 14.9137 35.7587C15.1347 36.3288 15.1759 36.953 15.0317 37.5472L15.3571 37.352C15.6174 35.7249 15.0967 34.6836 14.1205 34.163Z" fill="black"/>
<path d="M13.9901 40.2805C13.644 40.2453 13.2947 40.3032 12.9784 40.4483C12.6621 40.5933 12.3903 40.8207 12.1912 41.1057C11.9922 41.3914 11.8729 41.7246 11.8459 42.0715C11.8189 42.4184 11.8852 42.7659 12.0377 43.079L12.4933 43.4044C12.0377 41.7123 12.5584 40.8662 14.1203 40.4107L13.9901 40.2805Z" fill="black"/>
<path d="M11.0617 36.2457L10.8014 36.5711C12.1681 35.66 13.73 37.3521 13.8602 38.1982L14.0554 38.0029C14.0366 37.6598 13.9332 37.3265 13.7543 37.033C13.5753 36.7395 13.3266 36.4949 13.0302 36.3208C12.7337 36.1469 12.3988 36.0489 12.0554 36.0359C11.7119 36.0227 11.3705 36.0948 11.0617 36.2457Z" fill="black"/>
<path d="M36.2481 30.3232C35.7274 28.0454 34.6861 27.8501 33.9702 27.7851L33.7099 28.0454C35.5972 28.4359 35.9877 30.5836 35.9877 30.5836L36.2481 30.3232Z" fill="black"/>
<path d="M35.3369 25.9628L35.2068 26.3533C36.9639 26.2882 37.8751 26.939 38.2005 27.9803L38.4608 27.4596C37.4846 26.0279 36.5084 25.6374 35.3369 25.9628Z" fill="black"/>
<path d="M32.6686 20.8865H32.148C31.8877 21.8628 32.0178 23.4247 32.929 24.2057H33.2544C32.6289 23.2199 32.4185 22.0269 32.6686 20.8865Z" fill="black"/>
<path d="M34.8814 24.4659C35.4307 23.4452 35.8255 22.3485 36.0529 21.2119L36.5084 21.4071C36.3244 22.5653 35.9034 23.6731 35.2719 24.6612L34.8814 24.4659Z" fill="black"/>
</g>
<defs>
<clipPath id="clip0_281_15283">
<rect width="45" height="45" rx="22.5" fill="white"/>
</clipPath>
</defs>
</svg>
