<svg width="45" height="45" viewBox="0 0 45 45" fill="none" xmlns="http://www.w3.org/2000/svg">
<g clip-path="url(#clip0_281_15282)">
<rect width="45" height="45" rx="22.5" fill="#7196FF"/>
<path d="M16.8049 38.4653L15.8164 39.4454L22.9948 46.5632L23.9834 45.5829L16.8049 38.4653Z" fill="#2E3338"/>
<path d="M21.293 38.4759L20.3043 39.456L27.4827 46.5737L28.4714 45.5935L21.293 38.4759Z" fill="#2E3338"/>
<path d="M29.3798 37.2441C31.2387 35.3923 32.3891 32.9564 32.6332 30.3551C32.8773 27.7535 32.1997 25.149 30.7173 22.9892L26.0668 16.2082H20.5655V24.8576C20.5655 25.609 20.2643 26.3295 19.7286 26.8609C19.1927 27.392 18.466 27.6904 17.7082 27.6904H8.86334V29.6495C8.86334 32.5298 10.0152 35.2923 12.0664 37.3319C14.1175 39.3714 16.9008 40.5212 19.8055 40.5291H21.4164C24.401 40.5042 27.2581 39.3258 29.3798 37.2441Z" fill="#FFD836"/>
<path d="M26.0669 13.0441C27.5259 13.0441 28.9252 13.6188 29.957 14.6418C30.9886 15.6648 31.5683 17.0522 31.5683 18.499V19.9154H20.5653V18.4688C20.5734 17.0273 21.1566 15.6476 22.1876 14.6311C23.2183 13.6146 24.613 13.044 26.0669 13.0441Z" fill="#FFD836"/>
<path d="M33.179 17.8961C33.4439 18.1557 33.6529 18.4658 33.794 18.8076C33.935 19.1494 34.0051 19.5159 33.9997 19.8851H28.7414C28.546 19.8813 28.3558 19.8209 28.1947 19.7113C28.0333 19.6018 27.9079 19.4479 27.8336 19.2687C27.7594 19.0893 27.7395 18.8924 27.7766 18.7021C27.8137 18.5118 27.906 18.3364 28.0423 18.1975L29.1062 17.1426V15.6358C29.106 15.4411 29.1819 15.2538 29.3177 15.1134C29.4538 14.9729 29.6394 14.8901 29.8356 14.8823C30.036 14.8931 30.2276 14.967 30.3827 15.0933L33.179 17.8961Z" fill="#FF9A15"/>
<path d="M26.0667 13.0439H24.4557C22.473 13.0414 20.5718 12.2613 19.1671 10.874L18.3767 9.99997V10.5425C18.3767 12.3009 19.0812 13.9873 20.3354 15.2307C21.5893 16.4741 23.2901 17.1727 25.0636 17.1727H26.0363L26.0667 13.0439Z" fill="#FFD836"/>
<path d="M18.2552 15.515H22.6623V19.8849L18.2552 15.515Z" fill="#FFD836"/>
<path d="M11.4163 31.9098C12.2382 33.6507 13.7049 35.0106 15.5118 35.707C17.3186 36.4035 19.3266 36.3832 21.1185 35.6498C22.9104 34.9167 24.3487 33.5271 25.1343 31.7698C25.9199 30.0126 25.9925 28.0228 25.3371 26.2139L11.4163 31.9098Z" fill="#FF9A15"/>
<path d="M4 22.8685L7.43468 26.4248C7.88556 26.8661 8.24394 27.3916 8.48909 27.9709C8.73443 28.5504 8.86157 29.1719 8.86323 29.8001H11.3252V28.0825C11.3223 27.1224 10.9986 26.1906 10.4046 25.4326C9.81061 24.6745 8.97999 24.1332 8.04256 23.8933L4 22.8685Z" fill="#FFD836"/>
<path d="M10.474 28.7756L10.2004 29.0467C10.0882 29.1535 9.94678 29.225 9.79372 29.2524C9.64066 29.2798 9.48283 29.2619 9.34014 29.2008C9.19725 29.1396 9.07592 29.0379 8.99109 28.9087C8.90627 28.7795 8.86168 28.6283 8.86313 28.474V20.548L10.474 22.1454C11.3502 23.0301 11.8411 24.2203 11.8411 25.4604C11.8411 26.7004 11.3502 27.8908 10.474 28.7756Z" fill="#FFD836"/>
<path d="M26.401 17.1727C26.7872 17.1727 27.1002 16.8624 27.1002 16.4796C27.1002 16.0967 26.7872 15.7864 26.401 15.7864C26.0149 15.7864 25.7019 16.0967 25.7019 16.4796C25.7019 16.8624 26.0149 17.1727 26.401 17.1727Z" fill="#202225"/>
</g>
<defs>
<clipPath id="clip0_281_15282">
<rect width="45" height="45" rx="22.5" fill="white"/>
</clipPath>
</defs>
</svg>
